# xmcd
#
# Track frame offsets: 
#        150
#        23810
#        44257
#        63025
#        80402
#        100517
#        118975
#
# Disc length: 1916 seconds
#
# Revision: 0
# Processed by: cddbd v1.5.2PL0 Copyright (c) Steve Scherf et al.
# Submitted via: ExactAudioCopy v1.1
#
DISCID=4d077a07
DTITLE=doriko feat.Hatsune Miku - origin
DYEAR=2015
DGENRE=Electronic
TTITLE0=あなたの願いをうたうもの
TTITLE1=海の見える坂道
TTITLE2=水彩画
TTITLE3=魔女裁判
TTITLE4=Alone
TTITLE5=Starlight
TTITLE6=歌に形はないけれど ~last mix~
EXTD=
EXTT0=
EXTT1=
EXTT2=
EXTT3=
EXTT4=
EXTT5=
EXTT6=
PLAYORDER=
